<svg width="44" height="50" viewBox="0 0 44 50" fill="none" xmlns="http://www.w3.org/2000/svg">
<path d="M30.3473 33.0356C35.6679 24.6867 34.999 25.7283 35.1523 25.5106C37.0895 22.7784 38.1133 19.5627 38.1133 16.2109C38.1133 7.32227 30.9003 0 22 0C13.1287 0 5.88672 7.30781 5.88672 16.2109C5.88672 19.5605 6.93203 22.8605 8.93262 25.6295L13.6525 33.0357C8.60615 33.8112 0.0273438 36.1223 0.0273438 41.2109C0.0273438 43.0659 1.23809 45.7095 7.00605 47.7694C11.0336 49.2078 16.3585 50 22 50C32.5493 50 43.9727 47.0242 43.9727 41.2109C43.9727 36.1214 35.4039 33.8128 30.3473 33.0356ZM11.3798 24.0181C11.3637 23.9929 11.3468 23.9682 11.3293 23.944C9.66455 21.6538 8.81641 18.9396 8.81641 16.2109C8.81641 8.88496 14.7154 2.92969 22 2.92969C29.2694 2.92969 35.1836 8.8876 35.1836 16.2109C35.1836 18.9439 34.3515 21.5661 32.7768 23.796C32.6356 23.9821 33.3719 22.8384 22 40.6825L11.3798 24.0181ZM22 47.0703C10.4771 47.0703 2.95703 43.6833 2.95703 41.2109C2.95703 39.5492 6.82109 36.8169 15.3836 35.7519L20.7646 44.1955C20.897 44.4032 21.0795 44.5742 21.2954 44.6926C21.5113 44.8111 21.7536 44.8732 21.9999 44.8732C22.2462 44.8732 22.4885 44.8111 22.7044 44.6926C22.9203 44.5742 23.1028 44.4032 23.2352 44.1955L28.6161 35.7519C37.1788 36.8169 41.043 39.5492 41.043 41.2109C41.043 43.6623 33.5905 47.0703 22 47.0703Z" fill="#214442"/>
<path d="M22 8.88672C17.9614 8.88672 14.6758 12.1724 14.6758 16.2109C14.6758 20.2495 17.9614 23.5352 22 23.5352C26.0386 23.5352 29.3242 20.2495 29.3242 16.2109C29.3242 12.1724 26.0386 8.88672 22 8.88672ZM22 20.6055C19.5769 20.6055 17.6055 18.6341 17.6055 16.2109C17.6055 13.7878 19.5769 11.8164 22 11.8164C24.4231 11.8164 26.3945 13.7878 26.3945 16.2109C26.3945 18.6341 24.4231 20.6055 22 20.6055Z" fill="#214442"/>
</svg>
