<svg width="16" height="22" viewBox="0 0 16 22" fill="none" xmlns="http://www.w3.org/2000/svg">
<path d="M16 21.6182H14V19.6182C14 17.9613 12.6569 16.6182 11 16.6182H5C3.34315 16.6182 2 17.9613 2 19.6182V21.6182H0V19.6182C0 16.8568 2.23858 14.6182 5 14.6182H11C13.7614 14.6182 16 16.8568 16 19.6182V21.6182ZM8 12.6182C4.68629 12.6182 2 9.93186 2 6.61816C2 3.30445 4.68629 0.618164 8 0.618164C11.3137 0.618164 14 3.30445 14 6.61816C14 9.93186 11.3137 12.6182 8 12.6182ZM8 10.6182C10.2091 10.6182 12 8.8273 12 6.61816C12 4.40902 10.2091 2.61816 8 2.61816C5.79086 2.61816 4 4.40902 4 6.61816C4 8.8273 5.79086 10.6182 8 10.6182Z" fill="#214442"/>
</svg>
