<svg width="55" height="42" viewBox="0 0 55 42" fill="none" xmlns="http://www.w3.org/2000/svg">
<path d="M49.8447 0H5.15717C3.78985 0.00145589 2.47895 0.545262 1.51211 1.5121C0.545266 2.47894 0.00145589 3.78985 0 5.15717L0 36.0928C0.00145589 37.4601 0.545266 38.7711 1.51211 39.7379C2.47895 40.7047 3.78985 41.2485 5.15717 41.25H49.8447C51.2117 41.2481 52.5221 40.704 53.4885 39.7372C54.455 38.7705 54.9985 37.4598 55 36.0928V5.15717C54.9985 3.79017 54.455 2.47955 53.4885 1.51276C52.5221 0.545972 51.2117 0.00194099 49.8447 0ZM49.8447 3.4375C50.0708 3.43813 50.2945 3.48362 50.5028 3.57133L27.5 23.507L4.49717 3.57133C4.70557 3.48371 4.92926 3.43823 5.15533 3.4375H49.8447ZM49.8447 37.8125H5.15717C4.70108 37.8125 4.26368 37.6313 3.94118 37.3088C3.61868 36.9863 3.4375 36.5489 3.4375 36.0928V7.20317L26.3743 27.0802C26.6872 27.351 27.0871 27.5 27.5009 27.5C27.9147 27.5 28.3146 27.351 28.6275 27.0802L51.5625 7.20317V36.0928C51.5625 36.5486 51.3816 36.9857 51.0595 37.3082C50.7374 37.6306 50.3004 37.812 49.8447 37.8125Z" fill="#214442"/>
</svg>
