<svg width="20" height="21" viewBox="0 0 20 21" fill="none" xmlns="http://www.w3.org/2000/svg">
<path d="M0.24283 6.47259L9.4895 0.926838C9.8062 0.736888 10.2019 0.736958 10.5185 0.927018L19.7573 6.47257C19.9079 6.56294 20 6.72567 20 6.90127V19.6182C20 20.1705 19.5523 20.6182 19 20.6182H1C0.44772 20.6182 0 20.1705 0 19.6182V6.90139C0 6.72572 0.09218 6.56295 0.24283 6.47259ZM2 7.75085V18.6182H18V7.75038L10.0037 2.95061L2 7.75085ZM10.0597 13.3165L15.3556 8.85356L16.6444 10.3829L10.074 15.9199L3.36401 10.3899L4.63599 8.84654L10.0597 13.3165Z" fill="#214442"/>
</svg>
