<svg width="18" height="19" viewBox="0 0 18 19" fill="none" xmlns="http://www.w3.org/2000/svg">
<path d="M9 2.18119C11.3855 2.18119 11.7108 2.18119 12.6867 2.18119C13.5542 2.18119 13.988 2.39806 14.3133 2.5065C14.747 2.72336 15.0723 2.8318 15.3976 3.1571C15.7229 3.4824 15.9398 3.8077 16.0482 4.24144C16.1566 4.56674 16.2651 5.00047 16.3735 5.86794C16.3735 6.84385 16.3735 7.06071 16.3735 9.55469C16.3735 12.0487 16.3735 12.2655 16.3735 13.2414C16.3735 14.1089 16.1566 14.5426 16.0482 14.8679C15.8313 15.3017 15.7229 15.627 15.3976 15.9523C15.0723 16.2776 14.747 16.4944 14.3133 16.6029C13.988 16.7113 13.5542 16.8197 12.6867 16.9282C11.7108 16.9282 11.494 16.9282 9 16.9282C6.50602 16.9282 6.28916 16.9282 5.31325 16.9282C4.44578 16.9282 4.01205 16.7113 3.68675 16.6029C3.25301 16.386 2.92771 16.2776 2.60241 15.9523C2.27711 15.627 2.06024 15.3017 1.95181 14.8679C1.84337 14.5426 1.73494 14.1089 1.62651 13.2414C1.62651 12.2655 1.62651 12.0487 1.62651 9.55469C1.62651 7.06071 1.62651 6.84385 1.62651 5.86794C1.62651 5.00047 1.84337 4.56674 1.95181 4.24144C2.16868 3.8077 2.27711 3.4824 2.60241 3.1571C2.92771 2.8318 3.25301 2.61493 3.68675 2.5065C4.01205 2.39806 4.44578 2.28963 5.31325 2.18119C6.28916 2.18119 6.61446 2.18119 9 2.18119ZM9 0.554688C6.50602 0.554688 6.28916 0.554688 5.31325 0.554688C4.33735 0.554688 3.68675 0.771556 3.14458 0.988423C2.60241 1.20529 2.06024 1.53059 1.51807 2.07276C0.975904 2.61493 0.759037 3.04866 0.433736 3.69927C0.216868 4.24144 0.108434 4.89204 0 5.86794C0 6.84385 0 7.16915 0 9.55469C0 12.0487 0 12.2655 0 13.2414C0 14.2173 0.216868 14.8679 0.433736 15.4101C0.650603 15.9523 0.975904 16.4944 1.51807 17.0366C2.06024 17.5788 2.49398 17.7957 3.14458 18.121C3.68675 18.3378 4.33735 18.4463 5.31325 18.5547C6.28916 18.5547 6.61446 18.5547 9 18.5547C11.3855 18.5547 11.7108 18.5547 12.6867 18.5547C13.6627 18.5547 14.3133 18.3378 14.8554 18.121C15.3976 17.9041 15.9398 17.5788 16.4819 17.0366C17.0241 16.4944 17.241 16.0607 17.5663 15.4101C17.7831 14.8679 17.8916 14.2173 18 13.2414C18 12.2655 18 11.9402 18 9.55469C18 7.16915 18 6.84385 18 5.86794C18 4.89204 17.7831 4.24144 17.5663 3.69927C17.3494 3.1571 17.0241 2.61493 16.4819 2.07276C15.9398 1.53059 15.506 1.31372 14.8554 0.988423C14.3133 0.771556 13.6627 0.663121 12.6867 0.554688C11.7108 0.554688 11.494 0.554688 9 0.554688Z" fill="#F4EFE9"/>
<path d="M9 4.89204C6.39759 4.89204 4.33735 6.95228 4.33735 9.55469C4.33735 12.1571 6.39759 14.2173 9 14.2173C11.6024 14.2173 13.6627 12.1571 13.6627 9.55469C13.6627 6.95228 11.6024 4.89204 9 4.89204ZM9 12.5908C7.37349 12.5908 5.96386 11.2896 5.96386 9.55469C5.96386 7.92818 7.26506 6.51854 9 6.51854C10.6265 6.51854 12.0361 7.81975 12.0361 9.55469C12.0361 11.1812 10.6265 12.5908 9 12.5908Z" fill="#F4EFE9"/>
<path d="M13.7711 5.86794C14.3699 5.86794 14.8554 5.38247 14.8554 4.7836C14.8554 4.18474 14.3699 3.69927 13.7711 3.69927C13.1722 3.69927 12.6867 4.18474 12.6867 4.7836C12.6867 5.38247 13.1722 5.86794 13.7711 5.86794Z" fill="#F4EFE9"/>
</svg>
