<svg width="48" height="48" viewBox="0 0 48 48" fill="none" xmlns="http://www.w3.org/2000/svg">
<g clip-path="url(#clip0_285_268)">
<path d="M47.8809 35.666C47.7407 35.1357 47.4908 34.6407 47.1473 34.2131C46.8038 33.7854 46.3745 33.4346 45.887 33.1832L35.6504 27.8789C34.8245 27.4407 33.8685 27.3141 32.957 27.5221C32.0454 27.7301 31.239 28.2589 30.6849 29.0119L29.0297 31.2799C28.9447 31.3979 28.8194 31.4807 28.6776 31.5127C28.5357 31.5448 28.3871 31.5239 28.2596 31.454C23.4069 28.6203 19.3682 24.5816 16.5345 19.7289C16.4646 19.6014 16.4437 19.4527 16.4757 19.3109C16.5078 19.169 16.5906 19.0438 16.7085 18.9587L18.9673 17.3035C19.7204 16.7494 20.2491 15.943 20.4571 15.0315C20.6652 14.1199 20.5385 13.164 20.1003 12.338L14.8404 2.11262C14.5874 1.62444 14.2343 1.19506 13.8042 0.852466C13.3741 0.509873 12.8766 0.261757 12.3442 0.124285C11.8117 -0.013186 11.2563 -0.0369254 10.7141 0.0546126C10.1719 0.146151 9.65508 0.350912 9.1973 0.655553L2.75991 4.95826C1.85704 5.55933 1.12798 6.38711 0.645776 7.35867C0.16357 8.33023 -0.0548496 9.41146 0.0123966 10.494C0.0988899 12.3242 0.346707 14.1432 0.752965 15.9298C2.92012 23.3537 6.98866 30.0829 12.5558 35.4512C17.9162 41.0241 24.6488 45.0883 32.0772 47.2355C33.8638 47.6417 35.6828 47.8895 37.513 47.9761H37.9258C38.9355 47.9739 39.9294 47.7248 40.8207 47.2505C41.712 46.7761 42.4738 46.0908 43.0395 45.2545L47.3255 38.8245C47.6359 38.3671 47.8458 37.8491 47.9416 37.3047C48.0373 36.7603 48.0166 36.2018 47.8809 35.666ZM44.5706 36.9731L40.3123 43.4105C40.0296 43.828 39.6428 44.1644 39.1901 44.3866C38.7375 44.6087 38.2346 44.7087 37.7314 44.6768C36.108 44.6019 34.4939 44.3889 32.9066 44.0399C26.053 42.0281 19.8471 38.2533 14.9089 33.0925C9.76344 28.1433 5.99338 21.9411 3.96889 15.0948C3.61666 13.5078 3.40049 11.8937 3.32274 10.27C3.28973 9.76767 3.38935 9.2655 3.61161 8.81382C3.83388 8.36214 4.17098 7.97683 4.58912 7.69651L11.0191 3.41047C11.117 3.34458 11.2325 3.30974 11.3505 3.31049H11.5079C11.5894 3.33158 11.6656 3.36971 11.7313 3.42236C11.7971 3.47502 11.8509 3.541 11.8893 3.61598L17.1843 13.8525C17.2501 13.9794 17.2688 14.1255 17.2369 14.2649C17.205 14.4042 17.1247 14.5277 17.0103 14.6134L14.7516 16.2686C13.9856 16.8387 13.4549 17.6695 13.2598 18.6042C13.0647 19.5388 13.2186 20.5126 13.6926 21.3415C16.818 26.6849 21.2666 31.1335 26.6099 34.2589C27.4393 34.7348 28.4144 34.8899 29.3505 34.6947C30.2865 34.4995 31.1184 33.9676 31.6884 33.1999L33.3436 30.9319C33.4293 30.8174 33.5528 30.7372 33.6921 30.7053C33.8315 30.6734 33.9776 30.692 34.1045 30.7578L44.341 36.0529C44.4113 36.0896 44.4737 36.1398 44.5245 36.2006C44.5754 36.2614 44.6138 36.3316 44.6375 36.4073C44.6613 36.4829 44.6698 36.5625 44.6628 36.6415C44.6558 36.7205 44.6332 36.7973 44.5965 36.8675C44.5873 36.886 44.5762 36.9046 44.565 36.9212L44.5706 36.9731Z" fill="#214442"/>
</g>
<defs>
<clipPath id="clip0_285_268">
<rect width="48" height="47.9722" fill="white"/>
</clipPath>
</defs>
</svg>
