<svg width="74" height="64" viewBox="0 0 74 64" fill="none" xmlns="http://www.w3.org/2000/svg">
<path d="M15.1722 64C10.4894 64 6.83684 62.3142 4.21449 58.9426C1.40483 55.571 0 50.9819 0 45.1753C0 36.559 1.87311 28.692 5.61932 21.5742C9.55284 14.4564 15.8277 7.80684 24.444 1.62559C26.6918 -0.0602063 28.4712 -0.434828 29.7824 0.501724C30.5316 1.06366 30.9062 1.90656 30.9062 3.03042C30.9062 3.96697 30.2507 4.90352 28.9395 5.84007C22.5709 11.2721 18.4501 15.4866 16.577 18.4835C14.8912 21.2932 14.0483 24.2902 14.0483 27.4744C14.0483 30.846 14.7975 33.4684 16.296 35.3415C17.7945 37.0273 19.4803 38.5258 21.3534 39.837C23.2265 40.9608 24.9123 42.3656 26.4108 44.0514C27.9093 45.7372 28.6585 48.2659 28.6585 51.6375C28.6585 55.0091 27.441 57.9124 25.006 60.3474C22.7582 62.7825 19.4803 64 15.1722 64ZM57.317 64C52.6343 64 48.8881 62.3142 46.0784 58.9426C43.456 55.571 42.1449 50.9819 42.1449 45.1753C42.1449 36.559 44.018 28.692 47.7642 21.5742C51.6977 14.4564 57.9726 7.80684 66.5889 1.62559C68.8366 -0.0602063 70.6161 -0.434828 71.9273 0.501724C72.6765 1.06366 73.0511 1.90656 73.0511 3.03042C73.0511 3.96697 72.3955 4.90352 71.0844 5.84007C64.7158 11.2721 60.595 15.4866 58.7219 18.4835C57.0361 21.2932 56.1932 24.2902 56.1932 27.4744C56.1932 30.846 56.9424 33.4684 58.4409 35.3415C59.9394 37.0273 61.6252 38.5258 63.4983 39.837C65.3714 40.9608 67.0572 42.3656 68.5557 44.0514C70.0542 45.7372 70.8034 48.2659 70.8034 51.6375C70.8034 55.0091 69.5859 57.9124 67.1508 60.3474C64.9031 62.7825 61.6252 64 57.317 64Z" fill="#F59B90"/>
</svg>
