<svg width="18" height="17" viewBox="0 0 18 17" fill="none" xmlns="http://www.w3.org/2000/svg">
<path d="M1.23741 7.44265C6.06923 5.1847 9.29121 3.69611 10.9033 2.97691C15.5063 0.923418 16.4627 0.566706 17.0861 0.554802C17.2232 0.552337 17.5298 0.588783 17.7284 0.761616C17.8961 0.907553 17.9422 1.10469 17.9643 1.24306C17.9864 1.38142 18.0139 1.69662 17.992 1.9429C17.7426 4.75397 16.6633 11.5757 16.1142 14.7241C15.8818 16.0564 15.4244 16.503 14.9815 16.5468C14.0189 16.6418 13.288 15.8645 12.3558 15.209C10.897 14.1834 10.0729 13.5449 8.65691 12.544C7.02048 11.3874 8.08131 10.7517 9.0139 9.71273C9.25797 9.44083 13.4988 5.30344 13.5809 4.92812C13.5912 4.88118 13.6007 4.7062 13.5038 4.61381C13.4069 4.52142 13.2639 4.55301 13.1606 4.57814C13.0143 4.61376 10.6839 6.26588 6.16938 9.53451C5.5079 10.0217 4.90875 10.2591 4.37193 10.2466C3.78013 10.2329 2.64175 9.88775 1.79548 9.59269C0.757494 9.23079 -0.0674757 9.03945 0.00436067 8.42484C0.0417775 8.10471 0.452793 7.77731 1.23741 7.44265Z" fill="#F4EFE9"/>
</svg>
