<svg width="221" height="224" viewBox="0 0 221 224" fill="none" xmlns="http://www.w3.org/2000/svg">
<g filter="url(#filter0_d_4_22)">
<path d="M101.117 7.89178C106.797 4.09748 114.203 4.09748 119.883 7.89178L122.849 9.87352C127.07 12.693 132.238 13.7209 137.216 12.7312L140.715 12.0356C147.415 10.7037 154.257 13.5378 158.052 19.2169L160.035 22.183C162.855 26.4031 167.236 29.3303 172.214 30.3211L175.713 31.0175C182.412 32.3507 187.649 37.5876 188.983 44.2868L189.679 47.7858C190.67 52.7639 193.597 57.1448 197.817 59.9652L200.783 61.9476C206.462 65.7431 209.296 72.5853 207.964 79.2848L207.269 82.7839C206.279 87.7623 207.307 92.9299 210.126 97.1506L212.108 100.117C215.902 105.797 215.902 113.203 212.108 118.883L210.126 121.849C207.307 126.07 206.279 131.238 207.269 136.216L207.964 139.715C209.296 146.415 206.462 153.257 200.783 157.052L197.817 159.035C193.597 161.855 190.67 166.236 189.679 171.214L188.983 174.713C187.649 181.412 182.412 186.649 175.713 187.982L172.214 188.679C167.236 189.67 162.855 192.597 160.035 196.817L158.052 199.783C154.257 205.462 147.415 208.296 140.715 206.964L137.216 206.269C132.238 205.279 127.07 206.307 122.849 209.126L119.883 211.108C114.203 214.902 106.797 214.902 101.117 211.108L98.1506 209.126C93.93 206.307 88.7623 205.279 83.784 206.269L80.2849 206.964C73.5853 208.296 66.7431 205.462 62.9476 199.783L60.9653 196.817C58.1449 192.597 53.764 189.67 48.7858 188.679L45.2868 187.982C38.5876 186.649 33.3508 181.412 32.0175 174.713L31.3211 171.214C30.3304 166.236 27.4031 161.855 23.1831 159.035L20.2169 157.052C14.5379 153.257 11.7037 146.415 13.0356 139.715L13.7313 136.216C14.721 131.238 13.6931 126.07 10.8735 121.849L8.89181 118.883C5.09751 113.203 5.09751 105.797 8.89181 100.117L10.8735 97.1506C13.6931 92.9299 14.721 87.7623 13.7313 82.7839L13.0356 79.2848C11.7037 72.5853 14.5379 65.7431 20.2169 61.9476L23.1831 59.9652C27.4031 57.1448 30.3304 52.7639 31.3211 47.7858L32.0175 44.2868C33.3508 37.5876 38.5876 32.3507 45.2868 31.0175L48.7858 30.3211C53.764 29.3303 58.1449 26.4031 60.9653 22.183L62.9476 19.2169C66.7431 13.5378 73.5853 10.7037 80.2849 12.0356L83.784 12.7312C88.7623 13.7209 93.93 12.693 98.1506 9.87352L101.117 7.89178Z" stroke="#F59B90" stroke-width="2.25217" shape-rendering="crispEdges"/>
</g>
<g filter="url(#filter1_d_4_22)">
<path d="M87.9783 88.4721C87.9783 84.9085 91.9207 82.7561 94.9184 84.6832L129.38 106.837C132.138 108.61 132.138 112.642 129.38 114.415L94.9184 136.569C91.9207 138.496 87.9783 136.344 87.9783 132.78V88.4721Z" fill="#214442"/>
</g>
<defs>
<filter id="filter0_d_4_22" x="0.919983" y="3.91992" width="219.16" height="219.16" filterUnits="userSpaceOnUse" color-interpolation-filters="sRGB">
<feFlood flood-opacity="0" result="BackgroundImageFix"/>
<feColorMatrix in="SourceAlpha" type="matrix" values="0 0 0 0 0 0 0 0 0 0 0 0 0 0 0 0 0 0 127 0" result="hardAlpha"/>
<feOffset dy="4"/>
<feGaussianBlur stdDeviation="2"/>
<feComposite in2="hardAlpha" operator="out"/>
<feColorMatrix type="matrix" values="0 0 0 0 0 0 0 0 0 0 0 0 0 0 0 0 0 0 0.25 0"/>
<feBlend mode="normal" in2="BackgroundImageFix" result="effect1_dropShadow_4_22"/>
<feBlend mode="normal" in="SourceGraphic" in2="effect1_dropShadow_4_22" result="shape"/>
</filter>
<filter id="filter1_d_4_22" x="67.087" y="70.0869" width="89.0782" height="89.0784" filterUnits="userSpaceOnUse" color-interpolation-filters="sRGB">
<feFlood flood-opacity="0" result="BackgroundImageFix"/>
<feColorMatrix in="SourceAlpha" type="matrix" values="0 0 0 0 0 0 0 0 0 0 0 0 0 0 0 0 0 0 127 0" result="hardAlpha"/>
<feOffset dy="4"/>
<feGaussianBlur stdDeviation="2"/>
<feComposite in2="hardAlpha" operator="out"/>
<feColorMatrix type="matrix" values="0 0 0 0 0 0 0 0 0 0 0 0 0 0 0 0 0 0 0.25 0"/>
<feBlend mode="normal" in2="BackgroundImageFix" result="effect1_dropShadow_4_22"/>
<feBlend mode="normal" in="SourceGraphic" in2="effect1_dropShadow_4_22" result="shape"/>
</filter>
</defs>
</svg>
