<svg width="20" height="21" viewBox="0 0 20 21" fill="none" xmlns="http://www.w3.org/2000/svg">
<path d="M10 20.6182C4.47715 20.6182 0 16.141 0 10.6182C0 5.09531 4.47715 0.618164 10 0.618164C15.5228 0.618164 20 5.09531 20 10.6182C20 16.141 15.5228 20.6182 10 20.6182ZM7.71002 18.2856C6.74743 16.2441 6.15732 13.9924 6.02731 11.6182H2.06189C2.458 14.7947 4.71639 17.3929 7.71002 18.2856ZM8.0307 11.6182C8.1811 14.057 8.8778 16.3479 10 18.3702C11.1222 16.3479 11.8189 14.057 11.9693 11.6182H8.0307ZM17.9381 11.6182H13.9727C13.8427 13.9924 13.2526 16.2441 12.29 18.2856C15.2836 17.3929 17.542 14.7947 17.9381 11.6182ZM2.06189 9.61816H6.02731C6.15732 7.24393 6.74743 4.99223 7.71002 2.95072C4.71639 3.84349 2.458 6.44166 2.06189 9.61816ZM8.0307 9.61816H11.9693C11.8189 7.17938 11.1222 4.88841 10 2.86615C8.8778 4.88841 8.1811 7.17938 8.0307 9.61816ZM12.29 2.95072C13.2526 4.99223 13.8427 7.24393 13.9727 9.61816H17.9381C17.542 6.44166 15.2836 3.84349 12.29 2.95072Z" fill="#214442"/>
</svg>
