<svg width="18" height="19" viewBox="0 0 18 19" fill="none" xmlns="http://www.w3.org/2000/svg">
<path fill-rule="evenodd" clip-rule="evenodd" d="M15.3 3.14219C13.6125 1.45469 11.3625 0.554688 9 0.554688C4.05 0.554688 0 4.60469 0 9.55469C0 11.1297 0.450007 12.7047 1.23751 14.0547L0 18.5547L4.72501 17.3172C6.07501 17.9922 7.5375 18.4422 9 18.4422C13.95 18.4422 18 14.3922 18 9.44219C18 7.07969 16.9875 4.82969 15.3 3.14219ZM9 16.9797C7.65 16.9797 6.30001 16.6422 5.17501 15.9672L4.94999 15.8547L2.13749 16.6422L2.92501 13.9422L2.69999 13.6047C1.91249 12.3672 1.57499 11.0172 1.57499 9.66719C1.57499 5.61719 4.95 2.24219 9 2.24219C11.025 2.24219 12.825 3.02969 14.2875 4.37969C15.75 5.84219 16.425 7.64219 16.425 9.66719C16.425 13.6047 13.1625 16.9797 9 16.9797ZM13.05 11.3547C12.825 11.2422 11.7 10.6797 11.475 10.6797C11.25 10.5672 11.1375 10.5672 11.025 10.7922C10.9125 11.0172 10.4625 11.4672 10.35 11.6922C10.2375 11.8047 10.125 11.8047 9.89999 11.8047C9.67499 11.6922 9.00001 11.4672 8.10001 10.6797C7.42501 10.1172 6.97501 9.32969 6.86251 9.10469C6.75001 8.87969 6.86251 8.76719 6.97501 8.65469C7.08751 8.54219 7.2 8.42969 7.3125 8.31719C7.425 8.20469 7.42501 8.09219 7.53751 7.97969C7.65001 7.86719 7.53751 7.75469 7.53751 7.64219C7.53751 7.52969 7.08751 6.40469 6.86251 5.95469C6.75001 5.61719 6.52501 5.61719 6.41251 5.61719C6.30001 5.61719 6.18749 5.61719 5.96249 5.61719C5.84999 5.61719 5.62499 5.61719 5.39999 5.84219C5.17499 6.06719 4.61251 6.62969 4.61251 7.75469C4.61251 8.87969 5.39999 9.89219 5.51249 10.1172C5.62499 10.2297 7.08749 12.5922 9.33749 13.4922C11.25 14.2797 11.5875 14.0547 12.0375 14.0547C12.4875 14.0547 13.3875 13.4922 13.5 13.0422C13.725 12.4797 13.725 12.0297 13.6125 12.0297C13.5 11.4672 13.275 11.4672 13.05 11.3547Z" fill="#F4EFE9"/>
</svg>
